<svg version="1.1" xmlns="http://www.w3.org/2000/svg" viewBox="0 0 104 34">
  <g fill-rule="nonzero">
    <path fill="#ffffff" d="M103.779 32.617h-5.194V.682h5.194v31.935ZM82.579 33.175c-4.507 0-7.254-2.618-7.254-6.61 0-3.906 2.833-6.353 7.855-6.739l6.352-.472v-.472c0-2.876-1.717-4.035-4.378-4.035-3.09 0-4.807 1.288-4.807 3.52h-4.464c0-4.593 3.777-7.598 9.529-7.598 5.709 0 9.228 3.09 9.228 8.971v12.877h-4.593l-.386-3.133c-.901 2.189-3.777 3.691-7.082 3.691Zm1.717-3.949c3.219 0 5.28-1.931 5.28-5.194v-1.116l-4.422.344c-3.262.3-4.507 1.373-4.507 3.09 0 1.932 1.288 2.876 3.649 2.876ZM63.366 33.175c-6.31 0-10.73-4.593-10.73-11.16 0-6.653 4.334-11.246 10.558-11.246 6.353 0 10.388 4.25 10.388 10.86v1.588l-15.968.043c.387 3.734 2.361 5.623 5.838 5.623 2.876 0 4.764-1.116 5.365-3.133h4.85c-.9 4.635-4.764 7.425-10.301 7.425Zm-.129-18.113c-3.09 0-4.979 1.673-5.494 4.85h10.645c0-2.919-2.017-4.85-5.15-4.85ZM35.127 32.617H29.89V.682h5.28V14.16c1.33-2.06 3.82-3.39 6.867-3.39 5.237 0 7.984 3.304 7.984 8.799v13.048h-5.236V20.813c0-3.562-1.76-5.28-4.422-5.28-3.305 0-5.236 2.319-5.236 5.495v11.59Z"/>
    <path fill="#a766d8" d="M16.51 25.44a4.034 4.034 0 1 1 0 8.069 4.034 4.034 0 0 1 0-8.069ZM4.035.492A4.034 4.034 0 0 1 7.166 7.07c-.906 1.113-1.982 2.308-1.982 3.743v.438c0 1.176.853 2.156 1.689 2.983.82.813 1.787 1.635 2.942 1.635h.425c1.424 0 2.612-1.06 3.718-1.956a4.035 4.035 0 1 1-.123 6.171c-1.033-.906-2.173-1.938-3.548-1.938h-.27c-1.23 0-2.248.915-3.113 1.79-.846.854-1.72 1.856-1.72 3.059v.279c0 1.368 1.017 2.508 1.91 3.545a4.035 4.035 0 1 1-6.1-.02c.896-1.028 1.912-2.162 1.912-3.525 0-1.364-1.016-2.497-1.912-3.524A4.014 4.014 0 0 1 0 17.099c0-.973.345-1.866.92-2.563.91-1.104 1.985-2.293 1.985-3.724 0-1.43-1.075-2.62-1.985-3.723A4.034 4.034 0 0 1 4.036.492Z"/>
  </g>
</svg>
